<?xml version="1.0" encoding="UTF-8"?>
<svg width="24px" height="24px" viewBox="0 0 24 24" version="1.1" xmlns="http://www.w3.org/2000/svg" xmlns:xlink="http://www.w3.org/1999/xlink">
    <title>返回</title>
    <g id="Page-1" stroke="none" stroke-width="1" fill="none" fill-rule="evenodd">
        <g id="4.1-IDE-合约调用弹框" transform="translate(-1170.000000, -391.000000)">
            <g id="返回" transform="translate(1170.000000, 391.000000)">
                <rect id="Rectangle" fill="#666666" opacity="0" x="0" y="0" width="24" height="24"></rect>
                <path d="M12,0.7499999 C9.01619252,0.749602079 6.15447979,1.93473875 4.04460927,4.04460927 C1.93473875,6.15447979 0.749602079,9.01619252 0.7499999,12 C0.7499999,18.2145 5.7855,23.2499999 12,23.2499999 C18.2145,23.2499999 23.2499999,18.2145 23.2499999,12 C23.2499999,5.7855 18.2145,0.7499999 12,0.7499999 Z M11.9999999,21 C8.78460966,21 5.81346644,19.2846097 4.20577125,16.5 C2.59807607,13.7153903 2.59807607,10.2846097 4.20577125,7.5 C5.81346644,4.71539025 8.78460966,3 11.9999999,3 C16.9705627,3 20.9999999,7.0294373 20.9999999,12 C20.9999999,16.9705627 16.9705627,21 11.9999999,21 L11.9999999,21 Z" id="Shape" fill="#096DD9" fill-rule="nonzero"></path>
                <path d="M12,6 C12.5522847,6 13,6.44771525 13,7 L13,11 L17,11 C17.5522847,11 18,11.4477153 18,12 C18,12.5522847 17.5522847,13 17,13 L12.999,13 L13,17 C13,17.5522847 12.5522847,18 12,18 C11.4477153,18 11,17.5522847 11,17 L10.999,13 L7,13 C6.44771525,13 6,12.5522847 6,12 C6,11.4477153 6.44771525,11 7,11 L11,11 L11,7 C11,6.44771525 11.4477153,6 12,6 Z" id="Combined-Shape" fill="#096DD9" transform="translate(12.000000, 12.000000) rotate(-45.000000) translate(-12.000000, -12.000000) "></path>
            </g>
        </g>
    </g>
</svg>