<svg xmlns="http://www.w3.org/2000/svg" viewBox="0 0 158.56 148.75"><defs><style>.cls-1{fill:#a6f2ff;}.cls-2{fill:#4e8ad1;}.cls-3{fill:#6eadea;}.cls-4{fill:#3567af;}</style></defs><title>合约仓库图标</title><g id="图层_2" data-name="图层 2"><polyline class="cls-1" points="100.48 29.84 80.43 18.26 60.52 29.83 80.57 41.41 100.48 29.84"/><polyline class="cls-2" points="80.51 41.29 60.46 29.72 60.4 51.99 80.45 63.56 80.51 41.29"/><polyline class="cls-3" points="100.45 29.72 80.4 41.29 80.47 63.56 100.51 51.99 100.45 29.72"/><path class="cls-4" d="M34.51,63a1.36,1.36,0,0,0-.81.14L67.76,44.62a1.3,1.3,0,0,1,.81-.14,1.91,1.91,0,0,1,1.53,1.86,1.43,1.43,0,0,1-.71,1.28L35.32,66.16A1.44,1.44,0,0,0,36,64.87,1.9,1.9,0,0,0,34.51,63Z"/><ellipse class="cls-4" cx="34.51" cy="64.65" rx="1.46" ry="1.71" transform="translate(-26.7 24.35) rotate(-28.55)"/><polyline class="cls-1" points="48.88 66.31 28.84 54.74 8.93 66.31 28.98 77.88 48.88 66.31"/><polyline class="cls-2" points="28.92 77.77 8.87 66.19 8.81 88.46 28.86 100.04 28.92 77.77"/><polyline class="cls-3" points="48.86 66.19 28.81 77.77 28.88 100.04 48.92 88.46 48.86 66.19"/><path class="cls-4" d="M74.46,100.07a1.31,1.31,0,0,1,.81.14L41.2,81.68a1.29,1.29,0,0,0-.81-.14,1.88,1.88,0,0,0-1.52,1.85,1.44,1.44,0,0,0,.7,1.29l34.07,18.53a1.41,1.41,0,0,1-.71-1.29A1.89,1.89,0,0,1,74.46,100.07Z"/><ellipse class="cls-4" cx="74.45" cy="101.71" rx="1.71" ry="1.46" transform="translate(-50.47 118.51) rotate(-61.45)"/><path class="cls-4" d="M126.59,63a1.39,1.39,0,0,1,.81.14L93.33,44.62a1.29,1.29,0,0,0-.81-.14A1.89,1.89,0,0,0,91,46.34a1.42,1.42,0,0,0,.7,1.28l34.07,18.54a1.44,1.44,0,0,1-.71-1.29A1.91,1.91,0,0,1,126.59,63Z"/><ellipse class="cls-4" cx="126.58" cy="64.65" rx="1.71" ry="1.46" transform="translate(9.3 144.95) rotate(-61.45)"/><polyline class="cls-1" points="149.71 66.31 129.67 54.74 109.76 66.31 129.81 77.88 149.71 66.31"/><polyline class="cls-2" points="129.75 77.77 109.7 66.19 109.64 88.46 129.68 100.04 129.75 77.77"/><polyline class="cls-3" points="149.69 66.19 129.64 77.77 129.7 100.04 149.75 88.46 149.69 66.19"/><path class="cls-4" d="M85.35,100.07a1.29,1.29,0,0,0-.81.14L118.6,81.68a1.31,1.31,0,0,1,.81-.14,1.89,1.89,0,0,1,1.53,1.85,1.42,1.42,0,0,1-.71,1.29L86.17,103.21a1.42,1.42,0,0,0,.7-1.29A1.88,1.88,0,0,0,85.35,100.07Z"/><ellipse class="cls-4" cx="85.35" cy="101.71" rx="1.46" ry="1.71" transform="translate(-38.23 53.15) rotate(-28.55)"/><polyline class="cls-1" points="100.48 96.76 80.43 85.19 60.52 96.76 80.57 108.33 100.48 96.76"/><polyline class="cls-2" points="80.51 108.22 60.46 96.64 60.4 118.91 80.45 130.49 80.51 108.22"/><polyline class="cls-3" points="100.45 96.64 80.4 108.22 80.47 130.49 100.51 118.91 100.45 96.64"/></g></svg>