<?xml version="1.0" encoding="UTF-8"?>
<svg width="24px" height="24px" viewBox="0 0 24 24" version="1.1" xmlns="http://www.w3.org/2000/svg" xmlns:xlink="http://www.w3.org/1999/xlink">
    <title>编译</title>
    <defs>
        <linearGradient x1="0%" y1="100%" x2="100%" y2="10.3271484%" id="linearGradient-1">
            <stop stop-color="#16A7FC" offset="0%"></stop>
            <stop stop-color="#C86DD7" offset="100%"></stop>
        </linearGradient>
    </defs>
    <g id="编译" stroke="none" stroke-width="1" fill="none" fill-rule="evenodd">
        <rect id="Rectangle-Copy-5" fill="url(#linearGradient-1)" opacity="0.201497396" x="0" y="0" width="24" height="24" rx="4"></rect>
        <g id="数据探索—代码本" transform="translate(4.000000, 4.000000)" fill="#FFFFFF" fill-rule="nonzero">
            <rect id="Rectangle" opacity="0" x="0" y="0" width="16" height="16"></rect>
            <path d="M2.81942856,1 L12.1965714,1 C13.2582857,1 14.12,1.83771428 14.12,2.87428572 L14.12,12.6125714 C14.12,12.9508572 13.9268571,13.4182857 13.6857143,13.664 L11.9508571,15.4171429 C11.7108571,15.6605714 11.2422857,15.8571429 10.8971429,15.8571429 L2.92342856,15.8571429 C1.86285714,15.8571429 1,15.0171429 1,13.9817143 L1,2.81942858 C1,1.81028572 1.81257142,1 2.81942856,1 Z M11.2057143,14.7714286 L13.0148571,12.9417143 C13.0708571,12.8845714 13.1257143,12.7474286 13.1257143,12.6582857 L13.1257143,2.87314286 C13.1169516,2.36861735 12.7011051,1.96658128 12.1965714,1.97473163 L2.97942856,1.97473163 C2.71837618,1.97333583 2.46749348,2.07597375 2.28236293,2.26003172 C2.09723237,2.44408968 1.99314286,2.69437177 1.99314286,2.95542858 L1.99314286,13.9817143 C1.99314286,14.4777143 2.40914286,14.8822857 2.92228572,14.8822857 L10.9337143,14.8822857 C11.0343825,14.8765426 11.1301899,14.8370925 11.2057143,14.7702857 L11.2057143,14.7714286 Z M11.0742857,11.368 L13.136,11.3908571 C13.4091429,11.3908571 13.632,11.608 13.6331429,11.8788571 C13.6319374,12.009394 13.5788438,12.1340872 13.4855766,12.2254248 C13.3923094,12.3167624 13.2665335,12.3672378 13.136,12.3657143 L11.0742857,12.3428571 C10.952,12.3428571 10.8571429,12.4342857 10.8571429,12.5485714 L10.8571429,14.8948571 C10.8559374,15.025394 10.8028438,15.1500872 10.7095766,15.2414248 C10.6163094,15.3327624 10.4905335,15.3832378 10.36,15.3817478 C10.2294665,15.3832378 10.1036906,15.3327624 10.0104234,15.2414248 C9.91715617,15.1500872 9.8640626,15.025394 9.86285714,14.8948571 L9.86285714,12.5485714 C9.86285714,11.8937143 10.4045714,11.368 11.0742857,11.368 L11.0742857,11.368 Z M5.74628572,9.24228572 C5.86350387,9.36066876 5.89802052,9.53793316 5.83378496,9.69164859 C5.76954941,9.84536402 5.61916851,9.94536229 5.45257142,9.94514532 C5.34321614,9.94551866 5.23811073,9.90281958 5.16,9.82628572 L3.23771428,7.9257143 C3.15982735,7.84827492 3.11603311,7.74297561 3.11603311,7.63314287 C3.11603311,7.52331013 3.15982735,7.41801081 3.23771428,7.34057144 L5.16,5.43885714 C5.32,5.28 5.58514286,5.28 5.74628572,5.43885714 C5.90742858,5.59885714 5.90742858,5.85142856 5.74628572,6.024 L4.12,7.63314286 L5.74628572,9.24 L5.74628572,9.24228572 Z M9.37257142,6.024 C9.29468449,5.94656062 9.25089025,5.84126131 9.25089025,5.73142857 C9.25089025,5.62159583 9.29468449,5.51629652 9.37257142,5.43885714 C9.53371428,5.28 9.79885714,5.28 9.96,5.43885714 L11.8822857,7.34057144 C11.9601726,7.41801081 12.0039669,7.52331013 12.0039669,7.63314287 C12.0039669,7.74297561 11.9601726,7.84827492 11.8822857,7.9257143 L9.96,9.82628572 C9.88160743,9.90309861 9.77603615,9.94582007 9.66628572,9.94515079 C9.49918848,9.94582431 9.34818104,9.84564697 9.28384124,9.69143173 C9.21950144,9.53721649 9.25453637,9.35942083 9.37257142,9.24114286 L11,7.63314286 L9.37257142,6.024 Z M8.6,4.79428572 C8.81142858,4.872 8.92,5.10514286 8.85142856,5.32457144 L7.06171428,10.2148571 C6.98137816,10.4282151 6.74567605,10.5387163 6.53028572,10.464 C6.42494236,10.4288487 6.33841345,10.3523855 6.29056754,10.2521678 C6.24272163,10.15195 6.23766958,10.0365882 6.27657142,9.93257144 L8.06628572,5.04228572 C8.14709029,4.82818245 8.38425207,4.71798094 8.6,4.79428572 L8.6,4.79428572 Z" id="Shape"></path>
        </g>
    </g>
</svg>