<?xml version="1.0" encoding="UTF-8"?>
<svg width="16px" height="16px" viewBox="0 0 16 16" version="1.1" xmlns="http://www.w3.org/2000/svg" xmlns:xlink="http://www.w3.org/1999/xlink">
    <title>复制</title>
    <g id="复制" stroke="none" stroke-width="1" fill="none" fill-rule="evenodd">
        <g fill-rule="nonzero">
            <rect id="Rectangle" fill="#FFFFFF" opacity="0" x="0" y="0" width="16" height="16"></rect>
            <path d="M12.0412191,14.5917969 L3.38948568,14.5917969 C2.68910726,14.5917969 2.15352376,14.0562134 2.15352376,13.355835 L2.15352376,3.05615234 L10.8052572,3.05615234 C11.5056356,3.05615234 12.0412191,3.59173584 12.0412191,4.29211426 L12.0412191,14.5917969 Z M2.97749837,3.88012695 L2.97749837,13.355835 C2.97749837,13.6030273 3.14229329,13.7678223 3.38948568,13.7678223 L11.2172445,13.7678223 L11.2172445,4.29211426 C11.2172445,4.04492188 11.0524495,3.88012695 10.8052572,3.88012695 L2.97749837,3.88012695 Z" id="Shape" fill="#25CEFE"></path>
            <path d="M9.56929525,6.64044189 L4.62544759,6.64044189 C4.41945394,6.64044189 4.21346029,6.47564697 4.21346029,6.22845459 C4.21346029,6.02246094 4.37825521,5.81646729 4.62544759,5.81646729 L9.56929525,5.81646729 C9.7752889,5.81646729 9.98128255,5.98126221 9.98128255,6.22845459 C9.98128255,6.43444824 9.7752889,6.64044189 9.56929525,6.64044189 Z M9.56929525,8.70037842 L4.62544759,8.70037842 C4.41945394,8.70037842 4.21346029,8.5355835 4.21346029,8.28839111 C4.21346029,8.08239746 4.37825521,7.87640381 4.62544759,7.87640381 L9.56929525,7.87640381 C9.7752889,7.87640381 9.98128255,8.04119873 9.98128255,8.28839111 C9.98128255,8.49438477 9.7752889,8.70037842 9.56929525,8.70037842 Z M9.56929525,10.7603149 L4.62544759,10.7603149 C4.41945394,10.7603149 4.21346029,10.59552 4.21346029,10.3483276 C4.21346029,10.142334 4.37825521,9.93634033 4.62544759,9.93634033 L9.56929525,9.93634033 C9.7752889,9.93634033 9.98128255,10.1011353 9.98128255,10.3483276 C9.98128255,10.5543213 9.7752889,10.7603149 9.56929525,10.7603149 Z" id="Shape" fill="#25CEFE"></path>
            <path d="M12.9475911,1.40820312 L4.70784505,1.40820312 C4.46065267,1.40820312 4.29585775,1.57299805 4.29585775,1.82019043 C4.29585775,2.06738281 4.46065267,2.23217773 4.70784505,2.23217773 L12.9475911,2.23217773 C13.1947835,2.23217773 13.3595785,2.39697266 13.3595785,2.64416504 L13.3595785,12.119873 L12.8651937,12.119873 L12.8651937,12.9438477 L14.1835531,12.9438477 L14.1835531,2.64416504 C14.1835531,1.94378662 13.6067708,1.40820312 12.9475911,1.40820312 Z" id="Path" fill="#25CEFE"></path>
            <path d="M12.4532064,12.5318604 C12.4532064,12.7593947 12.6376594,12.9438477 12.8651937,12.9438477 C13.092728,12.9438477 13.277181,12.7593947 13.277181,12.5318604 C13.277181,12.304326 13.092728,12.119873 12.8651937,12.119873 C12.6376594,12.119873 12.4532064,12.304326 12.4532064,12.5318604 Z" id="Path" fill="#25CEFE"></path>
        </g>
    </g>
</svg>