<?xml version="1.0" encoding="UTF-8"?>
<svg width="24px" height="24px" viewBox="0 0 24 24" version="1.1" xmlns="http://www.w3.org/2000/svg" xmlns:xlink="http://www.w3.org/1999/xlink">
    <title>部署</title>
    <defs>
        <linearGradient x1="0%" y1="100%" x2="100%" y2="10.3271484%" id="linearGradient-1">
            <stop stop-color="#16A7FC" offset="0%"></stop>
            <stop stop-color="#C86DD7" offset="100%"></stop>
        </linearGradient>
    </defs>
    <g id="部署" stroke="none" stroke-width="1" fill="none" fill-rule="evenodd">
        <rect id="Rectangle-Copy-6" fill="url(#linearGradient-1)" opacity="0.201497396" x="0" y="0" width="24" height="24" rx="4"></rect>
        <g id="符号-部署" transform="translate(4.000000, 4.000000)" fill="#FFFFFF" fill-rule="nonzero">
            <rect id="Rectangle" opacity="0" x="0" y="0" width="16" height="16"></rect>
            <path d="M2,1 L14,1 C14.5522847,1 15,1.44771525 15,2 L15,5 C15,5.55228475 14.5522847,6 14,6 L2,6 C1.44771525,6 1,5.55228475 1,5 L1,2 C1,1.44771525 1.44771525,1 2,1 Z M2.5,2 C2.22385763,2 2,2.22385763 2,2.5 L2,4.5 C2,4.77614237 2.22385763,5 2.5,5 L13.5,5 C13.7761424,5 14,4.77614237 14,4.5 L14,2.5 C14,2.22385763 13.7761424,2 13.5,2 L2.5,2 Z M11.5,2.5 L12.5,2.5 C12.7761424,2.5 13,2.72385763 13,3 L13,4 C13,4.27614237 12.7761424,4.5 12.5,4.5 L11.5,4.5 C11.2238576,4.5 11,4.27614237 11,4 L11,3 C11,2.72385763 11.2238576,2.5 11.5,2.5 Z M2,7 L14,7 C14.5522847,7 15,7.44771525 15,8 L15,14 C15,14.5522847 14.5522847,15 14,15 L2,15 C1.44771525,15 1,14.5522847 1,14 L1,8 C1,7.44771525 1.44771525,7 2,7 Z M2.5,8 C2.22385763,8 2,8.22385763 2,8.5 L2,13.5 C2,13.7761424 2.22385763,14 2.5,14 L13.5,14 C13.7761424,14 14,13.7761424 14,13.5 L14,8.5 C14,8.22385763 13.7761424,8 13.5,8 L2.5,8 Z M4,8.5 C4.27614237,8.5 4.5,8.72385763 4.5,9 L4.5,13 C4.5,13.2761424 4.27614237,13.5 4,13.5 C3.72385763,13.5 3.5,13.2761424 3.5,13 L3.5,9 C3.5,8.72385763 3.72385763,8.5 4,8.5 Z M6,8.5 C6.27614237,8.5 6.5,8.72385763 6.5,9 L6.5,13 C6.5,13.2761424 6.27614237,13.5 6,13.5 C5.72385763,13.5 5.5,13.2761424 5.5,13 L5.5,9 C5.5,8.72385763 5.72385763,8.5 6,8.5 Z M8,8.5 C8.27614237,8.5 8.5,8.72385763 8.5,9 L8.5,13 C8.5,13.2761424 8.27614237,13.5 8,13.5 C7.72385763,13.5 7.5,13.2761424 7.5,13 L7.5,9 C7.5,8.72385763 7.72385763,8.5 8,8.5 Z M10,8.5 C10.2761424,8.5 10.5,8.72385763 10.5,9 L10.5,13 C10.5,13.2761424 10.2761424,13.5 10,13.5 C9.72385763,13.5 9.5,13.2761424 9.5,13 L9.5,9 C9.5,8.72385763 9.72385763,8.5 10,8.5 Z M12,8.5 C12.2761424,8.5 12.5,8.72385763 12.5,9 L12.5,13 C12.5,13.2761424 12.2761424,13.5 12,13.5 C11.7238576,13.5 11.5,13.2761424 11.5,13 L11.5,9 C11.5,8.72385763 11.7238576,8.5 12,8.5 Z" id="Shape"></path>
        </g>
    </g>
</svg>