<svg xmlns="http://www.w3.org/2000/svg" viewBox="0 0 158.56 148.75"><defs><style>.cls-1{fill:#3567af;}.cls-2{fill:#6eadea;}.cls-3{fill:#a6f2ff;}.cls-4{fill:#4e8ad1;}.cls-5,.cls-6{fill:none;stroke-miterlimit:10;}.cls-5{stroke:#6eadea;}.cls-6{stroke:#3567af;}</style></defs><title>合约仓库图标</title><g id="图层_2" data-name="图层 2"><polygon class="cls-1" points="148.57 94.76 79.52 134.88 10.03 94.77 79.08 54.64 148.57 94.76"/><polygon class="cls-2" points="148.57 94.76 148.53 103.92 79.48 144.05 79.52 134.88 148.57 94.76"/><polygon class="cls-2" points="79.52 134.88 79.48 144.05 9.99 103.93 10.03 94.77 79.52 134.88"/><polyline class="cls-3" points="108.67 46.01 78.6 28.65 48.74 46 78.81 63.36 108.67 46.01"/><polyline class="cls-4" points="78.72 63.19 48.65 45.83 48.56 79.23 78.63 96.59 78.72 63.19"/><polyline class="cls-2" points="108.63 45.83 78.56 63.19 78.65 96.59 108.72 79.23 108.63 45.83"/><polyline class="cls-3" points="56.37 89.6 44.77 82.9 33.24 89.6 44.84 96.3 56.37 89.6"/><polyline class="cls-4" points="44.81 96.25 33.19 89.54 33.15 102.43 44.77 109.14 44.81 96.25"/><polyline class="cls-2" points="56.35 89.55 44.75 96.25 44.78 109.14 56.39 102.44 56.35 89.55"/><polyline class="cls-3" points="129.01 81.97 112.86 72.64 96.8 81.97 112.96 91.3 129.01 81.97"/><polyline class="cls-4" points="112.92 91.21 96.76 81.88 96.7 99.84 112.86 109.17 112.92 91.21"/><polyline class="cls-2" points="129 81.88 112.83 91.22 112.88 109.18 129.05 99.84 129 81.88"/><circle class="cls-5" cx="130.71" cy="47.63" r="3.32"/><circle class="cls-4" cx="29.17" cy="36.93" r="3.69"/><circle class="cls-6" cx="93.64" cy="9.88" r="5.18"/></g></svg>