<?xml version="1.0" encoding="UTF-8"?>
<svg width="20px" height="20px" viewBox="0 0 20 20" version="1.1" xmlns="http://www.w3.org/2000/svg" xmlns:xlink="http://www.w3.org/1999/xlink">
    <title>文件</title>
    <g id="文件" stroke="none" stroke-width="1" fill="none" fill-rule="evenodd">
        <g id="文件-copy" transform="translate(10.000000, 10.000000) scale(-1, 1) rotate(-180.000000) translate(-10.000000, -10.000000) " fill="#FFFFFF" fill-rule="nonzero">
            <rect id="Rectangle" opacity="0" x="0" y="0" width="20" height="20"></rect>
            <path d="M14.6875,1.5625 L5.3125,1.5625 C3.9375,1.5625 2.8125,2.6875 2.8125,4.0625 L2.8125,15.9375 C2.8125,17.3125 3.9375,18.4375 5.3125,18.4375 L12.21875,18.4375 C12.875,18.4375 13.5,18.1875 14,17.71875 L16.46875,15.25 C16.9375,14.78125 17.1875,14.15625 17.1875,13.46875 L17.1875,4.0625 C17.1875,2.6875 16.0625,1.5625 14.6875,1.5625 Z M4.0625,15.9375 L4.0625,4.0625 C4.0625,3.375 4.625,2.8125 5.3125,2.8125 L14.6875,2.8125 C15.375,2.8125 15.9375,3.375 15.9375,4.0625 L15.9375,13.125 L14.0625,13.125 C12.6875,13.125 11.5625,14.25 11.5625,15.625 L11.5625,17.1875 L5.3125,17.1875 C4.625,17.1875 4.0625,16.625 4.0625,15.9375 Z M13.09375,16.8125 C13,16.90625 12.90625,16.96875 12.8125,17.03125 L12.8125,15.625 C12.8125,14.9375 13.375,14.375 14.0625,14.375 L15.53125,14.375 L13.09375,16.8125 Z" id="Shape"></path>
            <path d="M7.1875,9.16666667 L12.8125,9.16666667 C13.15625,9.16666667 13.4375,8.88541667 13.4375,8.54166667 C13.4375,8.19791667 13.15625,7.91666667 12.8125,7.91666667 L7.1875,7.91666667 C6.84375,7.91666667 6.5625,8.19791667 6.5625,8.54166667 C6.5625,8.88541667 6.84375,9.16666667 7.1875,9.16666667 Z M7.1875,6.16666667 L12.8125,6.16666667 C13.15625,6.16666667 13.4375,5.88541667 13.4375,5.54166667 C13.4375,5.19791667 13.15625,4.91666667 12.8125,4.91666667 L7.1875,4.91666667 C6.84375,4.91666667 6.5625,5.19791667 6.5625,5.54166667 C6.5625,5.88541667 6.84375,6.16666667 7.1875,6.16666667 Z M10.0852273,10.9166667 L6.91477273,10.9166667 C6.72102273,10.9166667 6.5625,11.1979167 6.5625,11.5416667 C6.5625,11.8854167 6.72102273,12.1666667 6.91477273,12.1666667 L10.0852273,12.1666667 C10.2789773,12.1666667 10.4375,11.8854167 10.4375,11.5416667 C10.4375,11.1979167 10.2789773,10.9166667 10.0852273,10.9166667 Z" id="Shape"></path>
        </g>
    </g>
</svg>