<?xml version="1.0" encoding="UTF-8"?>
<svg width="32px" height="32px" viewBox="0 0 32 32" version="1.1" xmlns="http://www.w3.org/2000/svg" xmlns:xlink="http://www.w3.org/1999/xlink">
    <title>缩小</title>
    <defs>
        <linearGradient x1="0%" y1="100%" x2="100%" y2="10.3271484%" id="linearGradient-1">
            <stop stop-color="#3023AE" offset="0%"></stop>
            <stop stop-color="#C86DD7" offset="100%"></stop>
        </linearGradient>
    </defs>
    <g id="Page-1" stroke="none" stroke-width="1" fill="none" fill-rule="evenodd">
        <g id="4.0-IDE" transform="translate(-1788.000000, -20.000000)">
            <g id="Group" transform="translate(1788.000000, 20.000000)">
                <circle id="Oval-Copy-3" fill="url(#linearGradient-1)" cx="16" cy="16" r="16"></circle>
                <path d="M23.5,8 C23.7761424,8 24,8.22385763 24,8.5 L24,13.5 C24,13.7761424 23.7761424,14 23.5,14 C23.2238576,14 23,13.7761424 23,13.5 L23,9.706 L18.8786797,13.8284271 C18.6834175,14.0236893 18.366835,14.0236893 18.1715729,13.8284271 C17.9763107,13.633165 17.9763107,13.3165825 18.1715729,13.1213203 L22.292,9 L18.5,9 C18.2238576,9 18,8.77614237 18,8.5 C18,8.22385763 18.2238576,8 18.5,8 L23.5,8 Z" id="Combined-Shape-Copy-2" fill="#FFFFFF" transform="translate(21.000000, 11.000000) rotate(-180.000000) translate(-21.000000, -11.000000) "></path>
                <path d="M13.5,18 C13.7761424,18 14,18.2238576 14,18.5 L14,23.5 C14,23.7761424 13.7761424,24 13.5,24 C13.2238576,24 13,23.7761424 13,23.5 L13,19.706 L8.87867966,23.8284271 C8.68341751,24.0236893 8.36683502,24.0236893 8.17157288,23.8284271 C7.97631073,23.633165 7.97631073,23.3165825 8.17157288,23.1213203 L12.292,19 L8.5,19 C8.22385763,19 8,18.7761424 8,18.5 C8,18.2238576 8.22385763,18 8.5,18 L13.5,18 Z" id="Combined-Shape-Copy-3" fill="#FFFFFF" transform="translate(11.000000, 21.000000) rotate(-360.000000) translate(-11.000000, -21.000000) "></path>
                <path d="M23.5,18 C23.7761424,18 24,18.2238576 24,18.5 L24,23.5 C24,23.7761424 23.7761424,24 23.5,24 C23.2238576,24 23,23.7761424 23,23.5 L23,19 L18.5,19 C18.2238576,19 18,18.7761424 18,18.5 C18,18.2238576 18.2238576,18 18.5,18 L23.5,18 L23.5,18 Z" id="Combined-Shape-Copy-4" fill="#FFFFFF" transform="translate(21.000000, 21.000000) rotate(-270.000000) translate(-21.000000, -21.000000) "></path>
                <path d="M13.5,8 C13.7761424,8 14,8.22385763 14,8.5 L14,13.5 C14,13.7761424 13.7761424,14 13.5,14 C13.2238576,14 13,13.7761424 13,13.5 L13,9 L8.5,9 C8.22385763,9 8,8.77614237 8,8.5 C8,8.22385763 8.22385763,8 8.5,8 L13.5,8 L13.5,8 Z" id="Combined-Shape-Copy-5" fill="#FFFFFF" transform="translate(11.000000, 11.000000) rotate(-450.000000) translate(-11.000000, -11.000000) "></path>
            </g>
        </g>
    </g>
</svg>