<?xml version="1.0" encoding="UTF-8"?>
<svg width="32px" height="32px" viewBox="0 0 32 32" version="1.1" xmlns="http://www.w3.org/2000/svg" xmlns:xlink="http://www.w3.org/1999/xlink">
    <title>新建文件</title>
    <defs>
        <linearGradient x1="0%" y1="100%" x2="100%" y2="10.3271484%" id="linearGradient-1">
            <stop stop-color="#16A7FC" offset="0%"></stop>
            <stop stop-color="#C86DD7" offset="100%"></stop>
        </linearGradient>
    </defs>
    <g id="新建文件" stroke="none" stroke-width="1" fill="none" fill-rule="evenodd">
        <circle id="Oval" fill="url(#linearGradient-1)" opacity="0.201497396" cx="16" cy="16" r="16"></circle>
        <g id="文件" transform="translate(16.000000, 16.000000) scale(-1, 1) rotate(-180.000000) translate(-16.000000, -16.000000) translate(6.000000, 6.000000)" fill="#FFFFFF" fill-rule="nonzero">
            <rect id="Rectangle" opacity="0" x="0" y="0" width="20" height="20"></rect>
            <path d="M14.6875,1.5625 L5.3125,1.5625 C3.9375,1.5625 2.8125,2.6875 2.8125,4.0625 L2.8125,15.9375 C2.8125,17.3125 3.9375,18.4375 5.3125,18.4375 L12.21875,18.4375 C12.875,18.4375 13.5,18.1875 14,17.71875 L16.46875,15.25 C16.9375,14.78125 17.1875,14.15625 17.1875,13.46875 L17.1875,4.0625 C17.1875,2.6875 16.0625,1.5625 14.6875,1.5625 Z M4.0625,15.9375 L4.0625,4.0625 C4.0625,3.375 4.625,2.8125 5.3125,2.8125 L14.6875,2.8125 C15.375,2.8125 15.9375,3.375 15.9375,4.0625 L15.9375,13.125 L14.0625,13.125 C12.6875,13.125 11.5625,14.25 11.5625,15.625 L11.5625,17.1875 L5.3125,17.1875 C4.625,17.1875 4.0625,16.625 4.0625,15.9375 Z M13.09375,16.8125 C13,16.90625 12.90625,16.96875 12.8125,17.03125 L12.8125,15.625 C12.8125,14.9375 13.375,14.375 14.0625,14.375 L15.53125,14.375 L13.09375,16.8125 Z" id="Shape"></path>
            <path d="M7.1875,9.16666667 L12.8125,9.16666667 C13.15625,9.16666667 13.4375,8.88541667 13.4375,8.54166667 C13.4375,8.19791667 13.15625,7.91666667 12.8125,7.91666667 L7.1875,7.91666667 C6.84375,7.91666667 6.5625,8.19791667 6.5625,8.54166667 C6.5625,8.88541667 6.84375,9.16666667 7.1875,9.16666667 Z M10.625,11.3541667 L10.625,5.72916667 C10.625,5.38541667 10.34375,5.10416667 10,5.10416667 C9.65625,5.10416667 9.375,5.38541667 9.375,5.72916667 L9.375,11.3541667 C9.375,11.6979167 9.65625,11.9791667 10,11.9791667 C10.34375,11.9791667 10.625,11.6979167 10.625,11.3541667 Z" id="Shape"></path>
        </g>
    </g>
</svg>