<?xml version="1.0" encoding="UTF-8"?>
<svg width="32px" height="32px" viewBox="0 0 32 32" version="1.1" xmlns="http://www.w3.org/2000/svg" xmlns:xlink="http://www.w3.org/1999/xlink">
    <title>新建文件夹</title>
    <defs>
        <linearGradient x1="0%" y1="100%" x2="100%" y2="10.3271484%" id="linearGradient-1">
            <stop stop-color="#16A7FC" offset="0%"></stop>
            <stop stop-color="#C86DD7" offset="100%"></stop>
        </linearGradient>
    </defs>
    <g id="新建文件夹" stroke="none" stroke-width="1" fill="none" fill-rule="evenodd">
        <circle id="Oval-Copy-3" fill="url(#linearGradient-1)" opacity="0.201497396" cx="16" cy="16" r="16"></circle>
        <g id="文件夹" transform="translate(6.000000, 6.000000)" fill="#FFFFFF" fill-rule="nonzero">
            <rect id="Rectangle" opacity="0" x="0" y="0" width="20" height="20"></rect>
            <path d="M16.7871094,3.76953125 L8.72927734,3.76953125 C8.693125,2.72949219 7.83578125,1.89453125 6.78710938,1.89453125 L3.21289062,1.89453125 C2.14130859,1.89453125 1.26953125,2.76630859 1.26953125,3.83789062 L1.26953125,16.1816406 C1.26953125,17.2532031 2.14130859,18.125 3.21289062,18.125 L16.7871094,18.125 C17.8586719,18.125 18.7304688,17.2532031 18.7304688,16.1816406 L18.7304688,5.71289062 C18.7304688,4.64130859 17.8586719,3.76953125 16.7871094,3.76953125 Z M3.21289062,3.125 L6.78710938,3.125 C7.18019531,3.125 7.5,3.44480469 7.5,3.83789062 L7.5,4.38476562 C7.5,4.72455078 7.77544922,5 8.11523438,5 L16.7871094,5 C17.1801953,5 17.5,5.31980469 17.5,5.71289062 L17.5,6.26953125 L2.5,6.26953125 L2.5,3.83789062 C2.5,3.44480469 2.81980469,3.125 3.21289062,3.125 Z M16.7871094,16.8945312 L3.21289062,16.8945312 C2.81980469,16.8945312 2.5,16.5747266 2.5,16.1816406 L2.5,7.5 L17.5,7.5 L17.5,16.1816406 C17.5,16.5747266 17.1801953,16.8945312 16.7871094,16.8945312 Z" id="Shape"></path>
            <path d="M7.29166667,12.9166667 L12.9166667,12.9166667 C13.2604167,12.9166667 13.5416667,12.6354167 13.5416667,12.2916667 C13.5416667,11.9479167 13.2604167,11.6666667 12.9166667,11.6666667 L7.29166667,11.6666667 C6.94791667,11.6666667 6.66666667,11.9479167 6.66666667,12.2916667 C6.66666667,12.6354167 6.94791667,12.9166667 7.29166667,12.9166667 Z M10.7291667,15.1041667 L10.7291667,9.47916667 C10.7291667,9.13541667 10.4479167,8.85416667 10.1041667,8.85416667 C9.76041667,8.85416667 9.47916667,9.13541667 9.47916667,9.47916667 L9.47916667,15.1041667 C9.47916667,15.4479167 9.76041667,15.7291667 10.1041667,15.7291667 C10.4479167,15.7291667 10.7291667,15.4479167 10.7291667,15.1041667 Z" id="Shape"></path>
        </g>
    </g>
</svg>