<svg xmlns="http://www.w3.org/2000/svg" viewBox="0 0 158.56 148.75"><defs><style>.cls-1{fill:#3567af;}.cls-2{fill:#a6f2ff;}.cls-3{fill:#6eadea;}.cls-4{fill:#4e8ad1;}</style></defs><title>合约仓库图标</title><g id="图层_2" data-name="图层 2"><polyline class="cls-1" points="158.56 97.72 79.18 51.9 0.33 97.72 79.7 143.55 158.56 97.72"/><polygon class="cls-2" points="99.49 15.24 79.61 26.8 59.59 15.24 79.48 3.69 99.49 15.24"/><polygon class="cls-3" points="99.49 15.24 99.3 83.12 79.42 94.68 79.61 26.8 99.49 15.24"/><polygon class="cls-4" points="79.61 26.8 79.42 94.68 59.4 83.12 59.59 15.24 79.61 26.8"/><polygon class="cls-2" points="132.09 70.07 120.15 77.01 108.14 70.07 120.07 63.13 132.09 70.07"/><polygon class="cls-3" points="132.09 70.07 131.99 104.01 120.06 110.95 120.15 77.01 132.09 70.07"/><polygon class="cls-4" points="120.15 77.01 120.06 110.95 108.04 104.01 108.14 70.07 120.15 77.01"/><path class="cls-4" d="M51,90.32V97c0,1.86-1.23,3.73-3.68,5.15-4.93,2.86-13,2.86-17.93,0-2.5-1.44-3.75-3.34-3.74-5.22V90.24c0,1.89,1.24,3.79,3.74,5.23,5,2.86,13,2.86,17.93,0C49.73,94,51,92.18,51,90.32Z"/><ellipse class="cls-1" cx="38.29" cy="90.28" rx="7.34" ry="12.68" transform="translate(-52.1 128.31) rotate(-89.84)"/><path class="cls-4" d="M51,81.53v6.7c0,1.87-1.23,3.73-3.68,5.16-4.93,2.86-13,2.86-17.93,0-2.5-1.45-3.75-3.34-3.74-5.23v-6.7c0,1.89,1.24,3.78,3.74,5.23,5,2.86,13,2.86,17.93,0C49.73,85.26,51,83.4,51,81.53Z"/><ellipse class="cls-2" cx="38.29" cy="81.49" rx="7.34" ry="12.68" transform="matrix(0, -1, 1, 0, -43.32, 119.55)"/><path class="cls-4" d="M92.1,109.36l0,6.7c0,1.87-1.23,3.73-3.68,5.16-4.92,2.86-13,2.86-17.93,0-2.5-1.45-3.74-3.34-3.74-5.23l0-6.7c0,1.89,1.24,3.78,3.74,5.23,5,2.86,13,2.86,17.92,0C90.87,113.09,92.09,111.23,92.1,109.36Z"/><ellipse class="cls-2" cx="79.42" cy="109.32" rx="7.34" ry="12.68" transform="translate(-30.13 188.44) rotate(-89.84)"/></g></svg>