<?xml version="1.0" encoding="UTF-8"?>
<svg width="24px" height="24px" viewBox="0 0 24 24" version="1.1" xmlns="http://www.w3.org/2000/svg" xmlns:xlink="http://www.w3.org/1999/xlink">
    <title>保存</title>
    <defs>
        <linearGradient x1="0%" y1="100%" x2="100%" y2="10.3271484%" id="linearGradient-1">
            <stop stop-color="#16A7FC" offset="0%"></stop>
            <stop stop-color="#C86DD7" offset="100%"></stop>
        </linearGradient>
    </defs>
    <g id="保存" stroke="none" stroke-width="1" fill="none" fill-rule="evenodd">
        <rect id="Rectangle" fill="url(#linearGradient-1)" opacity="0.201497396" x="0" y="0" width="24" height="24" rx="4"></rect>
        <g transform="translate(4.000000, 4.000000)" fill="#FFFFFF" fill-rule="nonzero">
            <rect id="Rectangle" opacity="0" x="0" y="0" width="16" height="16"></rect>
            <path d="M13.25,1.99796875 C13.3878125,1.99796875 13.5,2.11015625 13.5,2.24796875 L13.5,13.7457813 C13.5,13.8835938 13.3878125,13.9957813 13.25,13.9957813 L2.78125,13.9957813 C2.6434375,13.9957813 2.53125,13.8835938 2.53125,13.7457813 L2.53125,2.24796875 C2.53125,2.11015625 2.6434375,1.99796875 2.78125,1.99796875 L13.25,1.99796875 M13.25,0.99796875 L2.78125,0.99796875 C2.0909375,0.99796875 1.53125,1.55765625 1.53125,2.24796875 L1.53125,13.7457812 C1.53125,14.4360937 2.0909375,14.9957812 2.78125,14.9957812 L13.25,14.9957812 C13.9403125,14.9957812 14.5,14.4360937 14.5,13.7457812 L14.5,2.24796875 C14.5,1.55765625 13.9403125,0.99796875 13.25,0.99796875 Z" id="Shape"></path>
            <path d="M11.30125,1.99796875 L11.30125,4.796875 L4.73,4.796875 L4.73,1.99796875 L11.30125,1.99796875 M12.30125,0.99796875 L3.73,0.99796875 L3.73,5.171875 C3.73,5.51703125 4.00984375,5.796875 4.355,5.796875 L11.67625,5.796875 C12.0214062,5.796875 12.30125,5.51703125 12.30125,5.171875 L12.30125,0.99796875 Z" id="Shape"></path>
            <path d="M10.2110937,2.448125 C9.935,2.448125 9.71109375,2.67203125 9.71109375,2.948125 L9.71109375,3.8465625 C9.71109375,4.12265625 9.935,4.3465625 10.2110937,4.3465625 C10.4871875,4.3465625 10.7110937,4.12265625 10.7110937,3.8465625 L10.7110937,2.948125 C10.7110937,2.67203125 10.4871875,2.448125 10.2110937,2.448125 Z" id="Path"></path>
        </g>
    </g>
</svg>