<svg xmlns="http://www.w3.org/2000/svg" xmlns:xlink="http://www.w3.org/1999/xlink" viewBox="0 0 158.56 148.75"><defs><style>.cls-1{fill:url(#未命名的渐变_31);}.cls-2{fill:#a6f2ff;}.cls-3{fill:#4e8ad1;}.cls-4{fill:#2f3b52;}.cls-5{fill:#6eadea;}</style><linearGradient id="未命名的渐变_31" x1="79.28" y1="92.85" x2="79.28" y2="0.27" gradientUnits="userSpaceOnUse"><stop offset="0" stop-color="#a6f2ff" stop-opacity="0.6"/><stop offset="0.7" stop-color="#a6f2ff" stop-opacity="0.06"/><stop offset="1" stop-color="#a6f2ff" stop-opacity="0"/></linearGradient></defs><title>合约仓库图标</title><g id="图层_2" data-name="图层 2"><path class="cls-1" d="M33.68,66.91,8.58.27H150L123.23,66.91,78.61,92.85Z"/><polygon class="cls-2" points="123.23 66.91 78.3 40.98 33.68 66.91 78.61 92.84 123.23 66.91"/><path class="cls-3" d="M42.75,113.44v-5.61l22.45,13v5.61l-22.45-13m0-15.07,0-5.61,22.45,13,0,5.61-22.45-13m33.5-1.76L31.38,70.68l-.15,51.61,44.92,25.93.14-51.61"/><polyline class="cls-4" points="65.26 105.72 42.81 92.76 42.79 98.37 65.24 111.33 65.26 105.72"/><polyline class="cls-4" points="65.22 120.79 42.76 107.83 42.75 113.44 65.2 126.4 65.22 120.79"/><path class="cls-5" d="M125.48,70.68,80.57,96.61l.15,51.61,44.91-25.93-.15-51.61"/><path class="cls-4" d="M114.81,90.85a7.21,7.21,0,0,0-3.29,5.7c0,2.09,1.49,2.92,3.31,1.87a7.22,7.22,0,0,0,3.28-5.68c0-2.09-1.48-2.94-3.3-1.89"/><path class="cls-4" d="M114.85,106.9a7.28,7.28,0,0,0-3.29,5.7c0,2.08,1.49,2.93,3.31,1.87a7.18,7.18,0,0,0,3.28-5.67c0-2.1-1.48-3-3.3-1.9"/><polygon class="cls-2" points="118.97 34.21 118.95 42.61 111.17 43.7 111.19 35.3 118.97 34.21"/><polygon class="cls-5" points="111.17 43.7 107.17 41.52 107.19 33.12 111.19 35.3 111.17 43.7"/><polygon class="cls-3" points="111.19 35.3 107.19 33.12 114.97 32.03 118.97 34.21 111.19 35.3"/><polygon class="cls-3" points="71.48 60.25 71.46 67.66 65.01 63.94 65.03 56.53 71.48 60.25"/><polygon class="cls-5" points="71.48 60.25 77.89 56.53 77.87 63.94 71.46 67.66 71.48 60.25"/><polygon class="cls-2" points="65.03 56.53 71.44 52.8 77.89 56.53 71.48 60.25 65.03 56.53"/><polygon class="cls-5" points="49.09 23.42 44.65 20.87 49.32 20.22 53.75 22.77 49.09 23.42"/><polygon class="cls-2" points="47.72 29.46 49.09 23.42 53.75 22.77 52.38 28.8 47.72 29.46"/><polygon class="cls-3" points="43.28 26.91 44.65 20.87 49.09 23.42 47.72 29.46 43.28 26.91"/><polygon class="cls-5" points="86.22 14.18 89.5 12.3 86.06 11.82 82.78 13.7 86.22 14.18"/><polygon class="cls-2" points="87.24 18.64 86.22 14.18 82.78 13.7 83.79 18.16 87.24 18.64"/><polygon class="cls-3" points="90.51 16.76 89.5 12.3 86.22 14.18 87.24 18.64 90.51 16.76"/></g></svg>