<svg xmlns="http://www.w3.org/2000/svg" viewBox="0 0 158.56 148.75"><defs><style>.cls-1{fill:#3567af;}.cls-2{fill:#6eadea;}.cls-3{fill:#4e8ad1;}.cls-4{fill:#a6f2ff;}</style></defs><title>合约仓库图标</title><g id="图层_2" data-name="图层 2"><polygon class="cls-1" points="148.53 86.34 79.52 126.44 10.07 86.35 79.08 46.24 148.53 86.34"/><polygon class="cls-2" points="148.53 86.34 148.49 99.55 79.48 139.65 79.52 126.44 148.53 86.34"/><polygon class="cls-2" points="79.52 126.44 79.48 139.65 10.03 99.56 10.07 86.35 79.52 126.44"/><path class="cls-3" d="M134.89,29,96,6.58c-.93-.53-1.69-.1-1.7,1L94.15,61.8a3.7,3.7,0,0,0,1.68,2.91l38.9,22.46c.94.55,1.7.11,1.71-1L136.59,32a3.72,3.72,0,0,0-1.7-2.92"/><path class="cls-4" d="M118.92,31.6,100.65,21.05c-.4-.23-.74-.06-.74.43a1.66,1.66,0,0,0,.74,1.3l18.26,10.54c.42.24.76,0,.76-.43a1.63,1.63,0,0,0-.75-1.29"/><path class="cls-4" d="M128.94,48.9,100.62,32.55c-.41-.24-.74,0-.75.42a1.65,1.65,0,0,0,.75,1.3l28.32,16.35c.42.25.74,0,.74-.44a1.6,1.6,0,0,0-.74-1.28"/><path class="cls-4" d="M128.91,59.15,100.59,42.8a.46.46,0,0,0-.75.42,1.64,1.64,0,0,0,.75,1.3l28.32,16.36c.42.24.74,0,.74-.44a1.6,1.6,0,0,0-.74-1.29"/><path class="cls-4" d="M128.88,69.39,100.56,53c-.4-.24-.74,0-.74.44a1.63,1.63,0,0,0,.74,1.3l28.32,16.35c.42.24.74,0,.75-.44a1.64,1.64,0,0,0-.75-1.3"/><path class="cls-2" d="M101.85,77.9l0,9.41c0,3.79-2.5,7.59-7.5,10.49-10,5.83-26.4,5.83-36.49,0-5.09-2.94-7.62-6.79-7.61-10.64l0-9.4c0,3.84,2.53,7.7,7.62,10.64,10.09,5.82,26.46,5.82,36.49,0C99.34,85.49,101.83,81.7,101.85,77.9Z"/><ellipse class="cls-4" cx="76.04" cy="77.83" rx="14.94" ry="25.8" transform="translate(-2 153.65) rotate(-89.84)"/><ellipse class="cls-3" cx="69.32" cy="52.56" rx="2.27" ry="5.67" transform="translate(-16.98 41.59) rotate(-29.93)"/><path class="cls-3" d="M71.54,57.59h-.06a2,2,0,0,1-.8-.26,5.55,5.55,0,0,1-1.28-1l-.14-.14c-.21-.21-.41-.49-.62-.74a10.77,10.77,0,0,1-.88-1.19A12.06,12.06,0,0,1,67,52.94l0-.08a11.63,11.63,0,0,1-.76-1.94,7.06,7.06,0,0,1-.24-1.16V49.7a3.57,3.57,0,0,1,0-.65,2.44,2.44,0,0,1,.1-.63,1.17,1.17,0,0,1,.07-.25,1.06,1.06,0,0,1,.42-.52s-37.13,21-38.86,21.46c-1.47.43-4.94-1.31-6.24,1.09-1.15,2.12,3.75,13.13,6.67,13.66,2.5.45,3.14-2.6,4.39-3.79s39.69-22.6,39.69-22.6A1.06,1.06,0,0,1,71.54,57.59Z"/><path class="cls-2" d="M66.82,73,49.39,44.1c1.24,2,6.27,1.28,11.36-1.74s8.51-7.36,7.39-9.54L85.57,61.69c1.12,2.19-2.18,6.46-7.39,9.55S68.06,75,66.82,73Z"/><path class="cls-4" d="M68.14,32.82C69.26,35,66,39.27,60.75,42.36S50.44,46.17,49.32,44s2.2-6.47,7.39-9.55S67,30.62,68.14,32.82Z"/></g></svg>