<svg xmlns="http://www.w3.org/2000/svg" viewBox="0 0 158.56 148.75"><defs><style>.cls-1{fill:#4e8ad1;}.cls-2,.cls-8{fill:none;}.cls-3,.cls-4{fill:#a6f2ff;}.cls-3{opacity:0.6;}.cls-5{fill:#6eadea;}.cls-6{fill:#275893;}.cls-7{fill:#3567af;}.cls-8{stroke:#4677c6;stroke-linecap:round;stroke-linejoin:round;}</style></defs><title>合约仓库图标</title><g id="图层_2" data-name="图层 2"><path class="cls-1" d="M73.16,27.47,20.7,58c-.92.53-.9,1.42,0,2l61,36.28a3.7,3.7,0,0,0,3.38,0L137.6,65.78c.92-.54.9-1.43,0-2l-61-36.28a3.65,3.65,0,0,0-3.37,0"/><polygon class="cls-2" points="3.66 111.13 30.61 95.47 57.73 111.13 30.78 126.79 3.66 111.13"/><polyline class="cls-1" points="57.73 111.13 30.61 95.47 3.66 111.13 30.78 126.79 57.73 111.13"/><polygon class="cls-3" points="42.08 111.13 30.66 104.53 19.3 111.13 30.73 117.73 42.08 111.13"/><polygon class="cls-2" points="96.28 108.42 125.49 91.44 154.9 108.42 125.68 125.39 96.28 108.42"/><polyline class="cls-1" points="154.9 108.42 125.49 91.44 96.28 108.42 125.68 125.39 154.9 108.42"/><polyline class="cls-3" points="145.94 108.42 125.52 96.63 105.24 108.42 125.66 120.2 145.94 108.42"/><path class="cls-4" d="M73.83,40.53l-8.55,5c-.41.24-.41.63,0,.88a1.61,1.61,0,0,0,1.51,0l8.54-5c.42-.24.41-.63,0-.88a1.62,1.62,0,0,0-1.5,0"/><path class="cls-4" d="M91.65,45.57,78.39,53.3c-.41.24-.4.63,0,.89a1.62,1.62,0,0,0,1.5,0l13.26-7.73c.41-.24.4-.62,0-.87a1.62,1.62,0,0,0-1.5,0"/><path class="cls-4" d="M103.35,52.52,66,74.28c-.41.24-.4.64,0,.89a1.64,1.64,0,0,0,1.51,0l37.36-21.76c.41-.24.39-.63,0-.88a1.6,1.6,0,0,0-1.49,0"/><path class="cls-4" d="M115.05,59.48,77.69,81.24a.47.47,0,0,0,0,.88,1.64,1.64,0,0,0,1.51,0l37.36-21.76c.42-.24.39-.63,0-.88a1.61,1.61,0,0,0-1.48,0"/><path class="cls-4" d="M57.93,52.16l-.75.44-.73.42c3,1.81,3.08,4.66.12,6.39a15.89,15.89,0,0,1,4-1.57c.89-1.93,0-4.11-2.61-5.68M44.09,52c-3.76,2.2-3.69,5.84.16,8.14a15.15,15.15,0,0,0,9.62,1.59,9,9,0,0,1,2.7-2.31,11.82,11.82,0,0,1-10.84-.14c-3-1.81-3.08-4.66-.12-6.38A11.79,11.79,0,0,1,56.45,53l.73-.42.75-.44c-3.86-2.29-10.06-2.37-13.84-.17"/><path class="cls-4" d="M56.57,59.41a9,9,0,0,0-2.7,2.31c-2.14,2.87-1.16,6.39,2.92,8.82a1.62,1.62,0,0,0,1.5,0c.4-.23.4-.62,0-.87-2.23-1.33-3.36-3-3.39-4.73s1-3.37,3.21-4.64A15.61,15.61,0,0,1,66,58.47a16.23,16.23,0,0,1,8,2,1.58,1.58,0,0,0,1.48,0c.42-.24.42-.63,0-.88-4.08-2.43-10.07-3-15-1.81a15.89,15.89,0,0,0-4,1.57"/><path class="cls-5" d="M135.69,63.58h0V53.73H124.25a31.17,31.17,0,0,0-14.12,0H98.85v9.83c0,2.73,1.83,5.47,5.44,7.56,7.23,4.17,18.88,4.17,26,0C133.92,69.05,135.7,66.31,135.69,63.58Z"/><path class="cls-6" d="M104.2,46.18a14.24,14.24,0,0,1,2.22-1.08c-3,8.28-7.58,8.64-7.58,8.64C98.82,51,100.6,48.27,104.2,46.18Z"/><path class="cls-6" d="M135.69,53.74c-4.26-.75-6.8-4.41-8.3-8.88a19.63,19.63,0,0,1,2.85,1.34C133.84,48.27,135.66,51,135.69,53.74Z"/><path class="cls-7" d="M135.69,53.74c0,2.73-1.76,5.46-5.34,7.53-7.18,4.18-18.82,4.18-26.07,0-3.6-2.07-5.42-4.8-5.44-7.53,0,0,4.53-.36,7.58-8.64,1.57-4.22,2.76-10.51,2.76-19.84h16.15s-.37,11.18,2.48,19.57C129.32,49.3,131.43,53,135.69,53.74Z"/><path class="cls-5" d="M107.07,16.2v9.91h.08a5.37,5.37,0,0,0,2.94,3.74,15.89,15.89,0,0,0,14.4,0,5.22,5.22,0,0,0,2.88-3.76h.07V16.83Z"/><path class="cls-4" d="M124.44,12.65a16,16,0,0,0-14.44,0c-4,2.3-3.89,6,.09,8.34a15.89,15.89,0,0,0,14.4,0c4-2.29,3.93-6.06,0-8.36"/><polyline class="cls-8" points="34.52 69.94 17.89 78.87 17.89 102.1"/><polyline class="cls-8" points="44.75 119.42 77.34 138.59 113.55 119.84"/></g></svg>