<?xml version="1.0" encoding="UTF-8"?>
<svg width="24px" height="24px" viewBox="0 0 24 24" version="1.1" xmlns="http://www.w3.org/2000/svg" xmlns:xlink="http://www.w3.org/1999/xlink">
    <title>导出JAVA</title>
    <defs>
        <linearGradient x1="0%" y1="100%" x2="100%" y2="10.3271484%" id="linearGradient-1">
            <stop stop-color="#16A7FC" offset="0%"></stop>
            <stop stop-color="#C86DD7" offset="100%"></stop>
        </linearGradient>
    </defs>
    <g id="导出JAVA" stroke="none" stroke-width="1" fill="none" fill-rule="evenodd">
        <rect id="Rectangle-Copy-7" fill="url(#linearGradient-1)" opacity="0.201497396" x="0" y="0" width="24" height="24" rx="4"></rect>
        <g id="下载" transform="translate(4.000000, 4.000000)" fill="#FFFFFF" fill-rule="nonzero">
            <rect id="Rectangle" opacity="0" x="0" y="0" width="16" height="16"></rect>
            <path d="M8.62161855,9.23685741 L8.62161855,3.89433564 L7.37838145,3.89433564 L7.37838145,9.23688939 L5.26259995,7.120948 L4.383484,8.00014391 L7.99992805,11.6163801 L11.616484,8.00014391 L10.737384,7.120948 L8.62161855,9.23685741 Z M15.3500007,4.89500119 C14.9482251,3.94508523 14.373095,3.09199962 13.6405677,2.35947228 C12.9080563,1.62697691 12.0549867,1.05179889 11.1050548,0.650039281 C10.1214497,0.234001359 9.07674997,0.023056375 7.99994405,0.023056375 C6.92313813,0.023056375 5.87840645,0.234001359 4.89481733,0.650039281 C3.94490137,1.05179889 3.09184773,1.62697692 2.35935237,2.35947228 C1.626857,3.09199962 1.05174294,3.94508523 0.649967344,4.89500119 C0.233961391,5.8786223 0.0230324062,6.92333797 0.0230324062,8.00011192 C0.0230324062,9.07691784 0.233961391,10.1216175 0.649967344,11.1051907 C1.05174294,12.0551066 1.62685702,12.9081603 2.35935237,13.6406556 C3.09184775,14.373135 3.94490137,14.9482651 4.89481733,15.3500247 C5.87840645,15.7660306 6.92312214,15.9769436 7.99994405,15.9769436 C9.07676595,15.9769436 10.1214657,15.7660306 11.1050548,15.3500247 C12.0549867,14.9482651 12.9080563,14.373119 13.6405677,13.6406556 C14.3730791,12.9081602 14.9482091,12.0551066 15.3500007,11.1051907 C15.7660226,10.1216015 15.9769516,9.07690186 15.9769516,8.00011192 C15.9769516,6.92333798 15.7660226,5.87860631 15.3500007,4.89500119 Z M10.6211109,14.2046253 C9.79106566,14.5556992 8.90918358,14.7337065 7.99994405,14.7337065 C7.09084841,14.7337065 6.20904628,14.5556992 5.37903303,14.2046253 C4.57720867,13.8655112 3.85704094,13.3799364 3.2385163,12.7614437 C2.61999166,12.1429511 2.13440089,11.4228153 1.79525483,10.621023 C1.44414887,9.79102569 1.26612558,8.90920756 1.26612558,8.00011194 C1.26612558,7.09092037 1.44416488,6.20900631 1.79525483,5.37894509 C2.13440089,4.57712073 2.61999166,3.85692103 3.2385163,3.23839639 C3.85702495,2.61990373 4.57719267,2.13432895 5.37901703,1.79518289 C6.20903028,1.44410892 7.09083242,1.26610161 7.99992805,1.26610161 C8.90916758,1.26610161 9.79104967,1.44410892 10.6210949,1.79518289 C11.4229192,2.13432895 12.143071,2.61990373 12.7615477,3.23839639 C13.3800243,3.85688905 13.8655511,4.57708875 14.2046812,5.37894509 C14.5557232,6.20897433 14.7337145,7.09087241 14.7337145,8.00011194 C14.7337145,8.90923955 14.5557232,9.79105767 14.2046812,10.621023 C13.8655512,11.4228473 13.3800243,12.142999 12.7615637,12.7614437 C12.143087,13.3799204 11.4229352,13.8655112 10.6211109,14.2046253 Z" id="Shape"></path>
        </g>
    </g>
</svg>