<?xml version="1.0" encoding="UTF-8"?>
<svg width="32px" height="32px" viewBox="0 0 32 32" version="1.1" xmlns="http://www.w3.org/2000/svg" xmlns:xlink="http://www.w3.org/1999/xlink">
    <title>上传文件</title>
    <defs>
        <linearGradient x1="0%" y1="100%" x2="100%" y2="10.3271484%" id="linearGradient-1">
            <stop stop-color="#16A7FC" offset="0%"></stop>
            <stop stop-color="#C86DD7" offset="100%"></stop>
        </linearGradient>
    </defs>
    <g id="上传文件" stroke="none" stroke-width="1" fill="none" fill-rule="evenodd">
        <circle id="Oval-Copy-4" fill="url(#linearGradient-1)" opacity="0.201497396" cx="16" cy="16" r="16"></circle>
        <g id="上传-(1)" transform="translate(6.000000, 6.000000)" fill="#FFFFFF" fill-rule="nonzero">
            <rect id="Rectangle" opacity="0" x="0" y="0" width="20" height="20"></rect>
            <path d="M15,6.875 C17.4162458,6.87500004 19.3749999,8.83375424 19.3749999,11.25 C19.3749999,13.6662458 17.4162458,15.625 15,15.625 L14.375,15.625 C14.029822,15.625 13.75,15.345178 13.75,15 C13.75,14.654822 14.029822,14.375 14.375,14.375 L15,14.375 C16.7258898,14.375 18.1250001,12.9758898 18.1250001,11.25 C18.1250001,9.52411016 16.7258898,8.125 15,8.125 C14.8175742,8.12437768 14.6355032,8.14111984 14.45625,8.175 C14.2854577,8.20936726 14.108072,8.17088878 13.9668702,8.0688438 C13.8256685,7.96679882 13.7334668,7.81044945 13.7125,7.6375 C13.4491698,5.78946881 11.8666982,4.4165026 10,4.4165026 C8.13330183,4.4165026 6.55083018,5.78946881 6.2875,7.6375 C6.26653322,7.81044945 6.17433154,7.96679882 6.03312976,8.0688438 C5.89192799,8.17088878 5.7145423,8.20936726 5.54375,8.175 C5.36449681,8.14111984 5.18242583,8.12437768 5,8.125 C3.27411016,8.125 1.875,9.52411016 1.875,11.25 C1.875,12.9758898 3.27411016,14.375 5,14.375 L5.62500007,14.375 C5.97017797,14.375 6.25,14.654822 6.25,15 C6.25,15.345178 5.97017797,15.625 5.62500007,15.625 L5,15.625 C2.58375424,15.625 0.625000065,13.6662458 0.625000065,11.25 C0.625000065,8.83375424 2.58375424,6.87500004 5,6.875 L5.1625,6.875 C5.73764772,4.67444958 7.72552928,3.13935507 10,3.13935507 C12.2744707,3.13935507 14.2623523,4.67444958 14.8375,6.875 L15,6.875 Z M10.625,17.5 C10.625,17.845178 10.345178,18.125 10,18.125 C9.65482203,18.125 9.375,17.845178 9.375,17.5 L9.375,11.875 C9.375,11.529822 9.65482203,11.25 10,11.25 C10.345178,11.25 10.625,11.529822 10.625,11.875 L10.625,17.5 Z M8.28125,14.7875 C8.13710515,14.9664631 7.90637968,15.0518922 7.68044408,15.0099562 C7.45450849,14.9680202 7.26980798,14.8054838 7.19948653,14.5867136 C7.12916507,14.3679433 7.18456609,14.1282287 7.34375,13.9625 L9.53125,11.4625 C9.64989565,11.3279685 9.82062464,11.2508986 10,11.2508986 C10.1793754,11.2508986 10.3501043,11.3279685 10.46875,11.4625 L12.65625,13.9625 C12.8661262,14.2230719 12.8335708,14.6027094 12.5823949,14.8237442 C12.331219,15.044779 11.9505232,15.0288025 11.71875,14.7875 L10,12.825 L8.28125,14.7875 Z" id="Shape"></path>
        </g>
    </g>
</svg>